<svg width="72" height="72" viewBox="0 0 72 72" fill="none" xmlns="http://www.w3.org/2000/svg">
<path d="M60.8721 20.9932H60.8711L60.5391 21.2402L53.6904 26.416L38.9902 37.5205C38.06 38.2223 37.0236 38.5976 35.9922 38.5977C34.9609 38.5977 33.9673 38.2345 33.0684 37.5557L28.4219 34.0459C22.7438 29.7574 17.0657 25.4682 11.3877 21.1826L11.3857 21.1816V21.1807C11.3564 21.1576 11.3281 21.1324 11.3027 21.1084L11.2031 21.0215C11.0936 20.9325 10.9522 20.8477 10.7646 20.8477L10.7197 20.8486L10.4375 20.8691V51.5195L10.9736 50.8789L11.1387 50.6826V50.6816L11.3818 50.3896C14.3475 46.6997 17.3137 43.0093 20.2793 39.3193C20.5339 39.0023 20.788 38.685 21.041 38.3682H21.042C21.5741 37.7038 22.1239 37.0156 22.6709 36.3447C22.8636 36.1071 23.1065 35.9561 23.3594 35.9561C23.518 35.9561 23.6661 36.0153 23.7998 36.1201L23.8838 36.1934C23.9599 36.2693 24.0131 36.3522 24.0459 36.4395C24.0894 36.5555 24.0937 36.6727 24.0762 36.7812C24.0419 36.9937 23.9214 37.1835 23.8262 37.3076L23.8271 37.3086C23.803 37.341 23.7778 37.3713 23.752 37.4004L23.751 37.3994C23.7419 37.4098 23.734 37.4219 23.7236 37.4346C23.7135 37.4469 23.7016 37.4607 23.6895 37.4746L22.2773 39.2324C18.9753 43.3422 15.6732 47.4523 12.374 51.5635L12.373 51.5625C12.3463 51.5961 12.3168 51.6299 12.292 51.6562L12.291 51.6553C12.1667 51.7907 12.0073 51.9697 11.9814 52.2461V52.2471L11.9502 52.583H60.4082L60.0361 52.0898L60.0352 52.0889C59.9852 52.0213 59.9429 51.9631 59.9043 51.9111H59.9033C59.8293 51.8107 59.7717 51.7345 59.7119 51.6602C57.6423 49.0848 55.5726 46.5094 53.5029 43.9326L51.0996 40.9434C50.1277 39.7363 49.1571 38.5274 48.1895 37.3174C47.9803 37.0565 47.8845 36.7501 47.9561 36.4756L47.9824 36.3965C48.0534 36.2186 48.1955 36.0864 48.3896 36.0098C48.4839 35.9721 48.5743 35.9522 48.665 35.9521C48.7118 35.9521 48.8078 35.9536 48.9424 36.0225C49.0729 36.0893 49.2329 36.2159 49.4219 36.4512H49.4229L59.5322 49.0322C59.854 49.4327 60.1755 49.8305 60.5146 50.25L61.5615 51.5459V20.4814L60.8721 20.9932ZM12.3242 19.9678L12.4014 20.0312L12.3994 20.0342L12.4795 20.0996L12.4814 20.1016C12.5679 20.173 12.6326 20.2246 12.6963 20.2734L15.458 22.3604C21.6456 27.0367 27.833 31.7147 34.0205 36.3896C34.6296 36.8495 35.3124 37.0898 35.9951 37.0898C36.6777 37.0898 37.3787 36.8456 37.999 36.376V36.375C45.0797 31.0281 52.1595 25.6774 59.2373 20.3262L59.2402 20.3242C59.2623 20.3083 59.2855 20.2931 59.3047 20.2803L59.3066 20.2783C59.4287 20.1992 59.604 20.0841 59.6934 19.835L59.8438 19.4209H11.6514L12.3242 19.9678ZM63.125 52.0264L63.1172 52.0479C62.9529 52.4931 62.7863 52.9417 62.4658 53.2861C61.9967 53.7894 61.4134 54.054 60.6621 54.1123L60.3291 54.125C57.3963 54.1221 54.469 54.1211 51.542 54.1211H30.4785L11.7422 54.125H11.7393C10.8894 54.125 10.281 53.9458 9.79297 53.5264C9.17327 52.9944 8.87351 52.3035 8.875 51.4297C8.88072 48.8157 8.87891 46.2031 8.87891 43.5889V40.6367L8.87793 20.834C8.87793 19.8628 9.11093 19.1166 9.60645 18.6143C10.1022 18.1117 10.8389 17.8751 11.7979 17.875H59.9502L60.2812 17.8789C61.0243 17.8991 61.5558 17.9975 61.9766 18.2725C62.4582 18.5872 62.7729 19.1193 63.1152 19.9521L63.125 19.9756V52.0264Z" fill="#6B7F42" stroke="#6B7F42" stroke-width="0.25"/>
</svg>
