<?xml version="1.0" encoding="UTF-8"?>
<svg id="Layer_1" data-name="Layer 1" xmlns="http://www.w3.org/2000/svg" viewBox="0 0 1080 1080">
  <defs>
    <style>
      .cls-1 {
        fill: #010101;
      }
    </style>
  </defs>
  <path d="M867.32,435.99h-2.26v-14.09h-4.87v-1.94h11.98v1.94h-4.85v14.09Zm14.97,0l-5-13.78h-.09c.02,.3,.05,.69,.07,1.16,.02,.47,.05,.98,.07,1.53,.02,.55,.03,1.09,.03,1.63v9.46h-2.06v-16.03h3.24l4.75,13.06h.08l4.87-13.06h3.21v16.03h-2.17v-9.59c0-.48,0-.98,.02-1.51,.01-.52,.03-1.02,.06-1.49,.02-.47,.05-.86,.07-1.17h-.1l-5.12,13.76h-1.92Z"/>
  <g>
    <polygon class="cls-1" points="246.27 566.53 246.27 517.6 259.59 517.6 259.59 511.95 227.02 511.95 227.02 517.6 240.19 517.6 240.19 566.53 246.27 566.53"/>
    <polygon class="cls-1" points="307.65 566.53 307.65 511.95 301.57 511.95 301.57 534.1 273.63 534.1 273.63 511.95 267.55 511.95 267.55 566.53 273.63 566.53 273.63 539.75 301.57 539.75 301.57 566.53 307.65 566.53"/>
    <polygon class="cls-1" points="348.69 517.6 348.69 511.95 320.39 511.95 320.39 566.53 348.69 566.53 348.69 560.88 326.47 560.88 326.47 539.46 348.04 539.46 348.04 533.81 326.47 533.81 326.47 517.6 348.69 517.6"/>
    <polygon class="cls-1" points="382.67 511.96 382.67 566.53 388.75 566.53 388.75 543.01 390.27 541.49 412.64 566.53 421.03 566.53 394.54 537.36 420.16 511.96 411.99 511.96 388.75 535.33 388.75 511.96 382.67 511.96"/>
    <path class="cls-1" d="M431.51,566.53l6.59-15.49h23.31l6.44,15.49h6.73l-24.54-57.18-25.19,57.18h6.66Zm18.38-42.99l9.12,21.86h-18.46l9.34-21.86Z"/>
    <polygon class="cls-1" points="520.77 566.53 520.77 511.96 514.69 511.96 514.69 534.1 486.76 534.1 486.76 511.96 480.68 511.96 480.68 566.53 486.76 566.53 486.76 539.75 514.69 539.75 514.69 566.53 520.77 566.53"/>
    <polygon class="cls-1" points="585.19 552.85 567.53 509.13 549.87 552.85 535.54 511.96 528.95 511.96 549.87 569.35 567.53 525.42 585.19 569.35 606.11 511.96 599.52 511.96 585.19 552.85"/>
    <path class="cls-1" d="M614.87,551.04h23.31l6.44,15.49h6.73l-24.54-57.18-25.19,57.18h6.66l6.59-15.49Zm11.8-27.5l9.12,21.86h-18.46l9.34-21.86Z"/>
    <path class="cls-1" d="M713.41,516.66c6.3,0,12.3,2.75,16.65,7.24v-7.53c-4.85-3.62-10.21-5.36-16.29-5.36-15.63,0-28.44,12.81-28.44,28.44s13.03,28.01,28.44,28.01c5.79,0,11.58-1.95,16.29-5.36v-7.53c-4.34,4.34-10.35,7.24-16.5,7.24-12.23,0-22.15-10.57-22.15-22.58s9.84-22.58,22-22.58Z"/>
    <path class="cls-1" d="M739.04,539.31c0,15.71,12.88,28.16,28.44,28.16s28.44-12.45,28.44-28.16-12.88-28.3-28.44-28.3-28.44,12.67-28.44,28.3Zm50.81-.07c0,12.31-9.99,22.58-22.37,22.58s-22.37-10.28-22.37-22.58,9.84-22.58,22.37-22.58,22.37,10.21,22.37,22.58Z"/>
    <path class="cls-1" d="M803.37,563.34c0,2.24,1.81,4.13,4.05,4.13s4.05-1.88,4.05-4.13-1.81-3.98-4.05-3.98-4.05,1.81-4.05,3.98Z"/>
    <path class="cls-1" d="M886.97,542.71c-34.01,4.55-62.75,28.64-73.22,61.36-.26,.78-.49,1.58-.83,2.37-2.91-12.73-14.09-21.62-27.18-21.62l-61.88-.08c.91,1.6,1.79,3.06,2.71,4.47,16.32,25.31,44.58,41.04,75.36,41.04,2.41,0,4.86-.1,7.36-.23v13.4c0,6.81-5.54,12.36-12.36,12.36H205.28c-6.81,0-12.36-5.54-12.36-12.36v-206.81c0-6.81,5.54-12.36,12.36-12.36H796.92c6.81,0,12.36,5.54,12.36,12.36l-.06,13.48c-2.44-.19-4.9-.29-7.3-.29-30.08,0-58.98,15.17-75.42,39.59-1.03,1.55-1.95,3.02-2.85,4.39h62.09c12.69,0,23.79-8.57,27.11-20.83,.28,1.02,.58,2.02,.91,3.03,10.47,32.71,39.21,56.79,73.22,61.35,1.52,.21,3.03,.37,4.41,.55-.01-1.52-.07-3.03-.17-4.5-2.76-42.33-35.27-77.14-77.29-82.76l-.28-.09v-15.03c0-8.6-7-15.6-15.6-15.6H204.16c-8.6,0-15.6,7-15.6,15.6v209.05c0,8.6,7,15.6,15.6,15.6H798.04c8.6,0,15.6-7,15.6-15.6l.05-15.06,.24-.03c42.02-5.63,74.52-40.43,77.29-82.76,.1-1.47,.16-2.99,.23-4.45-1.45,.12-2.95,.28-4.47,.49Zm-77.69-77.97c0,13.6-11.06,24.66-24.66,24.66l-52.69-.09c15.78-21.69,42.6-35.17,70-35.17,2.49,0,4.95,.11,7.36,.37v10.22Zm7.7-9.24c36.87,6.61,65.47,37.22,69.45,74.49-21.99-14.78-57.07-52.33-69.51-74.41l-.06-.1,.12,.02Zm-2.14,5.16c13.58,22.24,44.66,55.48,66.47,71.22-34.8-7.37-61.55-35.98-66.57-71.18l.1-.04Zm-5.61,164.89c-2.35,.21-4.81,.31-7.31,.31-28.09,0-54.31-14.03-70.02-36.61l-.06-.09h52.78c13.6,0,24.66,11.06,24.66,24.66l-.05,11.72Zm72.09-77.42l.04,.1c-21.86,15.65-52.95,48.89-66.63,71.1,5.01-35.22,31.77-63.83,66.59-71.2Zm5.2,1.95c-4.08,37.21-32.67,67.82-69.59,74.35,12.44-22.07,47.51-59.62,69.5-74.4l.1-.07v.12Z"/>
  </g>
</svg>