<svg id="Layer_1" data-name="Layer 1" xmlns="http://www.w3.org/2000/svg" viewBox="0 0 56 56">
  <defs>
    <style>
      .cls-1 {
        fill: #ab8744;
        stroke: #ac8741;
        stroke-miterlimit: 10;
        stroke-width: .3px;
      }
    </style>
  </defs>
  <path class="cls-1" d="M36.21,40.15c-.21,0-.4-.15-.45-.35-.04-.25.11-.48.36-.52,1.41-.25,2.73-.87,4.13-1.95,1.81-1.39,2.34-3.94,2.81-6.19.19-.95.38-1.85.66-2.59.32-.89,1.09-2.41,2.85-4.75h-2.62c-1.21.69-2.11,2.39-2.98,4.03-.58,1.06-1.15,2.16-1.81,2.97-.81,1-1.66,1.47-2.62,1.47-.26,0-.45-.21-.45-.44s.21-.46.45-.46c1.51,0,2.53-1.93,3.62-3.96.96-1.81,1.96-3.67,3.47-4.46l.21-.06h3.66l.4.25-.04.48c-.96,1.2-2.64,3.47-3.28,5.23-.26.69-.43,1.56-.62,2.47-.23,1.14-.51,2.43-.96,3.59-.53,1.37-1.26,2.39-2.19,3.11-1.53,1.18-2.96,1.85-4.52,2.14h-.11Z"></path>
  <path class="cls-1" d="M45.65,22.3c-.21,0-.4-.15-.45-.35-.36-1.56-.28-2.78.23-3.74.45-.87,1.26-1.49,2.43-1.95,1.24-.46,2.13-.91,2.6-1.56.55-.79.38-1.91.17-2.8-.06-.25.09-.48.34-.54.23-.06.49.08.55.33.38,1.6.3,2.68-.3,3.51-.6.83-1.64,1.35-3,1.87-.98.37-1.62.87-1.96,1.52-.4.77-.45,1.79-.15,3.13.06.23-.11.48-.34.54h-.11l-.02.04Z"></path>
  <path class="cls-1" d="M47.76,22.3c-.21,0-.38-.15-.45-.33-.28-1.12-.09-1.95.58-2.66.58-.6,1.43-1.02,2.45-1.49.34-.17.68-.33,1.04-.52,1.68-.87,2.07-2.39,1.36-5.58-.04-.23.11-.48.36-.52.23-.04.49.1.53.35.38,1.76.47,3.05.23,4.05-.26,1.12-.94,1.95-2.04,2.51-.38.19-.72.35-1.07.52-.92.44-1.73.83-2.17,1.31-.45.48-.55,1.02-.36,1.83.06.23-.09.48-.34.54h-.13Z"></path>
  <path class="cls-1" d="M43.65,22.3c-.19,0-.38-.12-.45-.33-.64-2.39-.55-4.11.23-5.42.7-1.14,1.83-1.79,3.24-2.49l.49-.23c.85-.39,1.28-.6,1.21-1.91,0-.25.17-.46.43-.48.26,0,.47.17.49.42.04.85-.09,1.47-.45,1.91-.34.42-.79.62-1.28.85l-.45.21c-1.28.64-2.3,1.22-2.88,2.16-.68,1.08-.72,2.57-.15,4.73.06.23-.09.48-.32.54h-.11l-.02.04Z"></path>
  <path class="cls-1" d="M19.32,48.58c-4.56,0-8.84-.56-12.06-1.56-1.6-.5-2.85-1.08-3.75-1.74-1-.73-1.51-1.54-1.51-2.41v-9.18c0-5.48,3.34-10.44,8.5-12.62.23-.1.49,0,.6.23.11.23,0,.5-.23.58-4.84,2.08-7.95,6.71-7.95,11.83v9.18c0,.56.38,1.12,1.15,1.68.79.58,2,1.14,3.47,1.6,3.13.98,7.33,1.52,11.78,1.52s8.65-.54,11.78-1.52c1.47-.46,2.68-1.02,3.47-1.6.77-.56,1.15-1.12,1.15-1.68v-9.18c0-2.47-.72-4.88-2.09-6.93-1.32-2.01-3.2-3.63-5.39-4.67-.23-.1-.32-.37-.21-.6.11-.23.38-.31.62-.21,2.36,1.12,4.35,2.84,5.77,4.98,1.45,2.22,2.22,4.77,2.22,7.41v9.18c0,.85-.51,1.66-1.51,2.41-.89.66-2.15,1.25-3.75,1.74-3.24,1-7.52,1.56-12.06,1.56Z"></path>
  <path class="cls-1" d="M34.14,34.24c-.26,0-.47-.21-.47-.44,0-4.13-2.32-7.93-6.05-9.9-.21-.12-.3-.39-.17-.6.13-.21.4-.29.62-.19,4.03,2.14,6.54,6.23,6.54,10.69,0,.25-.21.44-.45.44"></path>
  <path class="cls-1" d="M34.14,42.29c-.26,0-.47-.21-.47-.44v-4.23c0-.25.21-.44.47-.44s.45.19.45.44v4.26c0,.25-.21.44-.45.44"></path>
  <path class="cls-1" d="M19.6,23.24c-2.41,0-4.67-.17-6.35-.44-.85-.15-1.51-.31-2-.5-.23-.1-.98-.39-.98-1v-1.35c0-.25.19-.44.45-.44s.45.21.45.44v1.29s.58.42,2.58.73c1.62.23,3.69.37,5.86.37s4.24-.12,5.86-.37c2-.29,2.47-.64,2.58-.73v-1.12c0-.25.21-.44.45-.44s.45.21.45.44v1.18c0,.6-.75.89-.98,1-.47.19-1.15.35-2,.5-1.7.29-3.96.44-6.35.44Z"></path>
  <path class="cls-1" d="M19.6,21.89c-2.41,0-4.67-.17-6.35-.44-.85-.15-1.51-.31-2-.5-.23-.1-.98-.39-.98-1,0-.64.81-1.08,2.62-1.41,1.47-.27,3.47-.46,5.62-.5.26,0,.47.19.47.44s-.19.46-.45.46c-1.94.04-3.77.19-5.16.42-1.41.23-1.94.48-2.13.6.21.12.81.42,2.49.66,1.62.25,3.69.37,5.86.37s4.24-.12,5.86-.37c1.68-.25,2.3-.54,2.49-.66-.19-.12-.72-.37-2.13-.6-1.38-.23-3.22-.37-5.16-.42-.26,0-.45-.21-.45-.46s.21-.44.47-.44c2.17.04,4.18.21,5.62.5,1.81.33,2.62.79,2.62,1.43,0,.6-.75.89-.98,1-.47.19-1.15.35-2,.5-1.7.29-3.96.44-6.35.44"></path>
  <path class="cls-1" d="M20.28,19.46l-.3-.1-.04-.62c.47-.52.66-1,.7-1.79v-.04h-2.09c.04.81.23,1.29.7,1.83l-.04.62-.64-.04c-.62-.68-.87-1.37-.94-2.37v-.5c0-.25.19-.44.45-.44h3.02c.26,0,.45.21.45.44v.54c-.06.98-.32,1.66-.94,2.32l-.34.15Z"></path>
  <path class="cls-1" d="M19.6,19.64c-.45,0-.83-.12-1.02-.33l.04-.62h.62s.15.08.36.08c.26,0,.45.21.45.44s-.21.46-.45.46"></path>
  <path class="cls-1" d="M19.6,19.64c-.26,0-.47-.21-.47-.46s.21-.44.47-.44c.21,0,.34-.04.36-.06h.62l.04.62c-.19.21-.58.33-1.02.33Z"></path>
  <path class="cls-1" d="M26.58,10.9h-13.23c-.68,0-1.19-.75-1.19-1.74s.51-1.74,1.19-1.74h13.23c.68,0,1.19.75,1.19,1.74s-.51,1.74-1.19,1.74ZM13.38,10.03h13.23s.3-.33.3-.85-.21-.83-.3-.85h-13.23s-.3.33-.3.85.21.83.3.85Z"></path>
  <path class="cls-1" d="M9.07,22.78l-.23-.06c-2.13-1.18-4.52-5.09-4.52-8.8,0-1.76.49-3.11,1.45-4.01.85-.79,2.07-1.18,3.6-1.18h3.24c.26,0,.45.21.45.44s-.21.44-.45.44h-3.24c-1.28,0-2.28.31-2.96.95-.77.71-1.15,1.83-1.15,3.36,0,3.3,2.13,6.97,4.05,8.01.21.12.3.39.17.6l-.4.23v.02Z"></path>
  <path class="cls-1" d="M30.4,23.07l-.4-.23c-.13-.21-.04-.48.17-.6.96-.52,2.09-1.79,2.96-3.3,1-1.72,1.53-3.49,1.53-5.02s-.38-2.66-1.15-3.36c-.68-.62-1.68-.95-2.96-.95h-3.24c-.26,0-.45-.21-.45-.44s.21-.46.45-.46h3.24c1.53,0,2.75.39,3.6,1.18.96.89,1.45,2.22,1.45,4.01,0,1.66-.6,3.61-1.66,5.46-.96,1.66-2.19,3.03-3.3,3.63l-.21.06-.02.02Z"></path>
</svg>