<svg viewBox="0 0 56 56" xmlns="http://www.w3.org/2000/svg" data-name="Layer 1" id="Layer_1">
  <defs>
    <style>
      .cls-1 {
        fill: #ab8744;
        stroke-width: 0px;
      }
    </style>
  </defs>
  <path d="M27.8,26.77c-.69,0-1.26-.58-1.26-1.29s.57-1.29,1.26-1.29,1.26.59,1.26,1.29-.57,1.29-1.26,1.29Z" class="cls-1"></path>
  <path d="M27.8,25.48c-.34,0-.63-.29-.63-.64V5.33c0-1.14-.92-2.08-2.03-2.08s-2.03.94-2.03,2.08c0,.35-.29.61-.6.61s-.6-.29-.6-.61c0-1.84,1.46-3.33,3.23-3.33s3.26,1.49,3.26,3.33v19.51c0,.35-.29.64-.6.64Z" class="cls-1"></path>
  <path d="M24.85,10.77h-4.61c-.34,0-.6-.29-.6-.61v-4.83c0-.35.29-.61.6-.61h4.61c.34,0,.6.29.6.61v4.83c0,.35-.29.61-.6.61ZM20.87,9.52h3.38v-3.57h-3.38v3.57Z" class="cls-1"></path>
  <path d="M29.26,28.32l7.04,8.1-7.04,4.47v-12.58ZM27.83,24.46v19.04l10.64-6.76-10.64-12.28Z" class="cls-1"></path>
  <path d="M26.4,28.32v12.61l-7.13-4.33,7.13-8.28ZM27.83,24.46l-10.76,12.49,10.76,6.55v-19.04Z" class="cls-1"></path>
  <path d="M42.39,36.6c-1.06,0-1.83-.2-1.89-.2-.31-.09-.54-.41-.46-.76.09-.32.4-.53.74-.47.03,0,1.26.29,2.6.09,1.66-.26,2.75-1.17,3.18-2.69l1.32-6.52c.2-1.05.09-1.84-.34-2.37-.6-.76-1.72-.82-2.17-.82h-1.37c-.34,0-.6-.29-.6-.61s.29-.61.6-.61h1.37c.77,0,2.2.18,3.12,1.29.66.82.86,1.99.6,3.39l-1.32,6.55v.06c-.6,2.05-2.06,3.28-4.24,3.6-.4.06-.8.09-1.14.09Z" class="cls-1"></path>
  <path d="M42.39,33.59c-.49,0-.83-.09-.89-.09-.31-.09-.54-.41-.46-.76.09-.32.4-.56.74-.47,0,0,.49.12,1,.03.77-.12,1-.58,1.09-.91l1.17-4.71-.09-.73s-.37-.23-.69-.23h-.6c-.34,0-.6-.29-.6-.61s.29-.61.6-.61h.6c.4,0,1.14.09,1.63.7.46.56.43,1.26.34,1.78l-1.2,4.77c-.29,1.02-1.03,1.67-2.12,1.84h-.54Z" class="cls-1"></path>
  <path d="M35.01,44.88l-.4-.15-.06-.88c2.83-3.28,4.84-6.64,6.12-10.24,1.17-3.25,1.83-6.87,2.09-11.44.09-1.58.14-3.33.14-5.35,0-.35.29-.61.6-.61s.6.29.6.61c0,2.05-.06,3.83-.14,5.44-.26,4.65-.94,8.42-2.17,11.79-1.34,3.74-3.43,7.22-6.35,10.62l-.46.2h.03Z" class="cls-1"></path>
  <path d="M21.13,44.88l-.46-.2c-2.98-3.45-5.06-6.99-6.41-10.79-1.2-3.42-1.89-7.25-2.12-12.02-.09-1.52-.11-3.16-.11-5.03,0-.35.29-.61.6-.61s.63.29.63.61c0,1.84.03,3.48.11,4.97.23,4.65.89,8.36,2.06,11.67,1.29,3.66,3.32,7.05,6.18,10.38l-.06.88-.4.15h-.03Z" class="cls-1"></path>
  <path d="M28,20.6c-4.15,0-8.04-.32-10.99-.94-3.35-.7-4.98-1.61-4.98-2.84s1.63-2.13,4.98-2.84c2.95-.61,6.84-.94,10.99-.94s8.04.32,10.99.94c3.35.67,4.98,1.61,4.98,2.84s-1.63,2.13-4.98,2.84c-2.95.58-6.84.94-10.99.94ZM28,14.31c-4.06,0-7.87.32-10.76.91-3.78.76-4.01,1.61-4.01,1.61,0,0,.23.85,4.01,1.61,2.86.58,6.67.91,10.76.91s7.87-.32,10.76-.91c3.78-.76,4.01-1.61,4.01-1.61,0,0-.23-.82-4.01-1.61-2.86-.58-6.67-.91-10.76-.91Z" class="cls-1"></path>
  <path d="M28,54c-3.58,0-6.98-.29-10.16-.88-2.8-.5-5.35-1.23-7.55-2.13-1.97-.82-3.63-1.78-4.78-2.78-1.17-1.02-1.8-2.08-1.8-3.04,0-.35.29-.61.6-.61s.6.29.6.61c0,.58.52,1.32,1.37,2.11,1.06.91,2.58,1.81,4.44,2.57,2.12.88,4.58,1.58,7.33,2.08,3.09.56,6.41.85,9.93.85,6.18,0,12.19-1.05,16.88-2.92,1.95-.79,3.58-1.67,4.69-2.6.94-.76,1.49-1.52,1.49-2.08,0-.35.29-.61.6-.61s.6.29.6.61c0,1.9-2.6,4.09-6.95,5.82-4.84,1.93-10.99,3.01-17.34,3.01" class="cls-1"></path>
  <path d="M28,51.28c-6.35,0-12.36-.58-16.88-1.64-2.23-.53-3.98-1.14-5.24-1.81-1.46-.79-2.17-1.7-2.17-2.69,0-1.37,1.4-2.6,4.21-3.6,2.46-.88,5.92-1.58,10.02-2.02.34-.03.63.2.66.56.03.35-.2.64-.54.7-3.98.44-7.35,1.11-9.73,1.96-2.12.76-3.38,1.67-3.38,2.4,0,.47.54,1.05,1.55,1.58,1.12.61,2.83,1.2,4.92,1.7,4.44,1.02,10.33,1.58,16.6,1.58s12.19-.56,16.6-1.58c2.09-.5,3.81-1.08,4.92-1.7,1-.56,1.55-1.11,1.55-1.58,0-.76-1.23-1.67-3.32-2.43-2.35-.85-5.69-1.55-9.7-1.96-.34-.03-.57-.35-.54-.7.03-.35.34-.58.69-.56,4.24.44,14.11,1.9,14.11,5.62,0,.99-.74,1.9-2.17,2.69-1.23.67-3,1.29-5.24,1.81-4.52,1.05-10.5,1.64-16.88,1.64" class="cls-1"></path>
  <path d="M28,49c-4.18,0-8.13-.44-10.79-1.2-.31-.09-.52-.44-.43-.76.09-.32.43-.53.74-.44,2.58.73,6.38,1.17,10.47,1.17,3.63,0,7.04-.32,9.59-.94,2.89-.67,3.55-1.46,3.55-1.67,0-.26-.86-1.2-4.66-1.9-.34-.06-.54-.38-.49-.73.06-.35.37-.56.72-.5,3.75.7,5.67,1.75,5.67,3.13,0,.67-.46,1.29-1.4,1.81-.74.41-1.77.79-3.09,1.08-2.63.61-6.15.97-9.87.97" class="cls-1"></path>
  <path d="M28.09,46.89c-1.77,0-3.46-.26-4.84-.73-1.14-.38-2.09-.94-2.58-1.49l.06-.88.86.06c.6.7,2.89,1.81,6.5,1.81.34,0,.6.29.6.61s-.29.61-.6.61Z" class="cls-1"></path>
  <path d="M28.09,46.89c-.34,0-.6-.26-.6-.61s.29-.61.6-.61c2.09,0,3.58-.35,4.46-.67,1.12-.38,1.77-.82,2.03-1.14l.86-.06.06.88c-.49.56-1.4,1.11-2.58,1.49-1.4.47-3.06.73-4.84.73Z" class="cls-1"></path>
</svg>