<svg viewBox="0 0 56 56" xmlns="http://www.w3.org/2000/svg" data-name="Layer 1" id="Layer_1">
  <defs>
    <style>
      .cls-1 {
        fill: #ab8744;
        stroke-width: 0px;
      }
    </style>
  </defs>
  <path d="M28.19,17.5c-.3-.28-.72-.42-1.13-.42-.52,0-.99.23-1.32.62l-.61.76-.33.39h-4.05c.14,1.29.28,2.84.41,4.56.33,4.02.5,8.3.63,10.49.14,2.19.39,3.8.99,5.17.58,1.27,2.12,2.25,2.81,2.64h1.52c.69-.39,2.23-1.41,2.81-2.64.61-1.38.88-3.01.99-5.17.11-2.19.3-6.47.63-10.49.14-1.72.28-3.26.39-4.56h-2.12l-1.6-1.38-.03.03ZM25.82,18.71l.44-.56.8-.37.66.25.96.82,1.19,1.01c.44.39.5,1.07.14,1.52l-1.82,2.19c-.36.42-1.05.48-1.49.14l-2.15-1.86c-.44-.39-.5-1.07-.14-1.52l.72-.87.52-.65.11-.14.06.03ZM23.65,26.28l.8-.98c.52-.62,1.41-.7,2.01-.17l.96.84c.61.51.69,1.43.17,2.05l-.83.98c-.5.62-1.41.7-2.01.17l-.96-.82c-.61-.51-.69-1.43-.17-2.05M29.05,37.81l-.85,1.04c-.5.62-1.41.7-2.01.17l-1.02-.87c-.61-.51-.69-1.43-.17-2.05l.85-1.04c.5-.62,1.41-.7,2.01-.17l1.02.87c.61.51.69,1.46.17,2.05Z" class="cls-1"></path>
  <path d="M38.77,2.4c-.11-.37-.55-.56-.88-.42l-5.07,1.83-.25.25-.19.14-2.26,6.69v.08h-13.28l.17.68s.99,4.25,1.57,10.21c.33,3.54.55,7.26.72,9.98.06.93.11,1.77.14,2.42.19,2.92.61,4.78,1.46,6.36.91,1.74,3.42,3.04,4.3,3.46v6.07c-.91.31-3.36,1.12-4.63,1.55-1.87.62-1.93,1.72-1.93,1.83v.53h15.35v-.53s-.06-1.21-1.93-1.83c-1.27-.42-3.72-1.24-4.63-1.55v-6.07c.91-.42,3.39-1.72,4.33-3.46.83-1.58,1.27-3.43,1.46-6.36.06-.68.08-1.49.14-2.42.17-2.73.39-6.44.72-9.98.55-5.93,1.54-10.18,1.57-10.21l.17-.68h-2.98l.99-2.87.36-1.01.44-1.27,1.35-.45.91-.31,1.87-.65.41-.37v-.53l-.36-1.1-.03-.03ZM36.85,4.29l-2.31.79-.28.08-.14.06-.96-.79.19-.08.39-.14,4.38-1.57.39,1.1-1.65.56ZM32.85,5.02l1.05.82-.44,1.27-.33.93v-.03l-1.02,2.9-.11.08h-1.16M32.19,34.18c-.19,2.76-.58,4.5-1.32,5.93-.91,1.74-4.08,3.12-4.11,3.12l-.33.14v7.54l.36.11s3.42,1.12,4.99,1.66l.66.28h-12.15l.66-.28c1.57-.53,4.99-1.66,4.99-1.66l.36-.11v-7.54l-.33-.14s-3.2-1.38-4.11-3.12c-.77-1.43-1.16-3.15-1.35-5.93-.03-.65-.08-1.49-.14-2.42-.17-2.73-.39-6.47-.72-10.01-.44-4.64-1.13-8.27-1.43-9.7h16.31c-.3,1.43-1.02,5.06-1.43,9.7-.33,3.54-.55,7.28-.72,10.01-.06.93-.11,1.77-.17,2.42" class="cls-1"></path>
</svg>