<svg viewBox="0 0 56 56" xmlns="http://www.w3.org/2000/svg" data-name="Layer 1" id="Layer_1">
  <defs>
    <style>
      .cls-1 {
        fill: #ab8744;
        stroke-width: 0px;
      }
    </style>
  </defs>
  <path d="M43.4,28.04c-.52,0-.89-.09-.95-.09-.34-.09-.58-.4-.49-.75.09-.34.43-.55.8-.46,0,0,.52.11,1.07.03.83-.11,1.07-.57,1.16-.89l1.26-4.62-.09-.72s-.4-.23-.74-.23h-.64c-.37,0-.64-.29-.64-.6s.31-.6.64-.6h.64c.43,0,1.23.09,1.75.69.49.55.46,1.23.37,1.75l-1.29,4.68c-.31,1-1.1,1.64-2.27,1.81h-.58Z" class="cls-1"></path>
  <path d="M35.5,39.15l-.43-.14-.06-.86c3.03-3.21,5.18-6.51,6.55-10.04,1.26-3.19,1.96-6.74,2.24-11.22.09-1.55.15-3.27.15-5.28,0-.34.31-.6.64-.6s.64.29.64.6c0,2.01-.06,3.76-.15,5.34-.28,4.59-1.01,8.26-2.33,11.56-1.44,3.67-3.67,7.06-6.8,10.42l-.49.2.03.03Z" class="cls-1"></path>
  <path d="M20.65,39.15l-.49-.2c-3.18-3.39-5.42-6.86-6.86-10.59-1.29-3.36-2.02-7.12-2.27-11.79-.09-1.49-.12-3.1-.12-4.94,0-.34.31-.6.64-.6s.67.29.67.6c0,1.81.03,3.41.12,4.88.24,4.56.95,8.21,2.2,11.45,1.38,3.59,3.55,6.92,6.61,10.19l-.06.86-.43.14h-.03Z" class="cls-1"></path>
  <path d="M28,15.33c-4.44,0-8.61-.32-11.76-.92-3.58-.66-5.33-1.58-5.33-2.78s1.75-2.09,5.33-2.78c3.15-.6,7.32-.92,11.76-.92s8.61.32,11.76.92c3.58.66,5.33,1.58,5.33,2.78s-1.75,2.09-5.33,2.78c-3.15.6-7.32.92-11.76.92ZM28,9.16c-4.35,0-8.42.32-11.51.89-4.04.75-4.29,1.58-4.29,1.58,0,0,.25.83,4.29,1.58,3.06.57,7.14.89,11.51.89s8.42-.32,11.51-.89c4.04-.75,4.29-1.58,4.29-1.58,0,0-.25-.8-4.29-1.58-3.06-.57-7.14-.89-11.51-.89Z" class="cls-1"></path>
  <path d="M28,48.07c-3.83,0-7.47-.29-10.87-.86-3-.52-5.73-1.21-8.08-2.09-2.11-.8-3.89-1.75-5.11-2.73-1.26-1-1.93-2.04-1.93-2.98,0-.34.31-.6.64-.6s.64.29.64.6c0,.57.55,1.29,1.47,2.04,1.13.89,2.76,1.78,4.75,2.53,2.27.86,4.9,1.55,7.84,2.04,3.31.55,6.86.83,10.63.83,6.61,0,13.05-1,18.07-2.87,2.08-.77,3.83-1.64,5.02-2.53,1.01-.75,1.59-1.49,1.59-2.04,0-.34.31-.6.64-.6s.64.29.64.6c0,1.87-2.79,4.02-7.44,5.71-5.18,1.89-11.76,2.96-18.56,2.96" class="cls-1"></path>
  <path d="M28,45.43c-6.8,0-13.23-.57-18.07-1.61-2.39-.52-4.26-1.09-5.6-1.78-1.56-.77-2.33-1.66-2.33-2.64,0-1.35,1.5-2.55,4.5-3.53,2.63-.86,6.34-1.55,10.72-1.98.37-.03.67.2.7.55.03.34-.21.63-.58.66-4.26.43-7.87,1.09-10.41,1.92-2.27.75-3.61,1.64-3.61,2.35,0,.46.58,1.03,1.65,1.55,1.19.6,3.03,1.18,5.27,1.66,4.75,1,11.06,1.58,17.76,1.58s13.05-.55,17.76-1.58c2.24-.49,4.07-1.06,5.27-1.66,1.07-.55,1.65-1.09,1.65-1.55,0-.75-1.32-1.64-3.55-2.38-2.51-.83-6.09-1.52-10.38-1.92-.37-.03-.61-.34-.58-.66.03-.34.37-.57.74-.55,4.53.43,15.1,1.87,15.1,5.51,0,.98-.8,1.87-2.33,2.64-1.32.66-3.22,1.26-5.6,1.78-4.84,1.03-11.24,1.61-18.07,1.61" class="cls-1"></path>
  <path d="M28,43.16c-4.47,0-8.7-.43-11.55-1.18-.34-.09-.55-.43-.46-.75s.46-.52.8-.43c2.76.72,6.83,1.12,11.21,1.12,3.89,0,7.53-.32,10.26-.92,3.09-.66,3.8-1.41,3.8-1.64,0-.26-.92-1.18-4.99-1.87-.37-.06-.58-.37-.52-.72.06-.34.4-.55.77-.49,4.01.69,6.06,1.72,6.06,3.07,0,.66-.49,1.26-1.5,1.78-.8.4-1.9.75-3.31,1.06-2.82.6-6.58.95-10.57.95Z" class="cls-1"></path>
  <path d="M28.09,41.13c-1.9,0-3.71-.26-5.18-.72-1.23-.37-2.24-.92-2.76-1.46l.06-.86.92.06c.64.69,3.09,1.78,6.95,1.78.37,0,.64.29.64.6s-.31.6-.64.6Z" class="cls-1"></path>
  <path d="M28.09,41.13c-.37,0-.64-.29-.64-.6s.31-.6.64-.6c2.24,0,3.83-.34,4.78-.66,1.19-.37,1.9-.83,2.17-1.12l.92-.06.06.86c-.52.55-1.5,1.09-2.76,1.46-1.5.46-3.28.72-5.18.72Z" class="cls-1"></path>
</svg>