<svg viewBox="0 0 56 56" xmlns="http://www.w3.org/2000/svg" data-name="Layer 1" id="Layer_1">
  <defs>
    <style>
      .cls-1 {
        fill: #ab8744;
        stroke-width: 0px;
      }
    </style>
  </defs>
  <path d="M25.53,22.44c0-5.07,0-10.14,0-15.22,0-2.64,1.85-4.8,4.41-5.18,2.45-.36,4.86,1.29,5.52,3.82.13.5.18,1.03.18,1.55,0,10.14,0,20.29,0,30.43,0,.4.12.64.41.91,2.64,2.45,3.61,5.49,2.62,9-.98,3.48-3.34,5.6-6.84,6.14-5.44.84-10.08-3.64-9.65-9.27.18-2.37,1.19-4.35,2.97-5.89.28-.24.39-.49.39-.87-.01-5.14,0-10.29,0-15.43h0ZM33.96,22.97v-1.03c0-4.85,0-9.71,0-14.56,0-2.56-2.29-4.25-4.55-3.4-1.39.53-2.2,1.82-2.2,3.53,0,10.34,0,20.68,0,31.02,0,.57-.19.93-.63,1.27-2.53,1.9-3.43,5.32-2.21,8.26,1.25,2.99,4.32,4.73,7.42,4.1,2.78-.57,4.63-2.32,5.31-5.15.69-2.91-.22-5.33-2.51-7.19-.44-.36-.65-.72-.65-1.31.02-5.18.01-10.36.01-15.54h0Z" class="cls-1"></path>
  <path d="M19.55,8.5c-.59,0-1.18,0-1.77,0-.52,0-.83-.49-.83-1.28,0-.79.3-1.3.81-1.31,1.19-.01,2.39-.01,3.58,0,.51,0,.82.52.81,1.31,0,.78-.32,1.26-.84,1.27-.59,0-1.18,0-1.77,0h0Z" class="cls-1"></path>
  <path d="M19.52,16.3c-.59,0-1.18,0-1.77,0-.51,0-.82-.26-.81-.66,0-.38.31-.63.79-.63,1.21,0,2.42,0,3.63,0,.48,0,.78.26.78.64,0,.38-.3.64-.77.65-.62,0-1.24,0-1.86,0h0Z" class="cls-1"></path>
  <path d="M19.53,25.4c-.59,0-1.18,0-1.77,0-.51,0-.82-.26-.81-.66,0-.38.31-.63.79-.63,1.21,0,2.42,0,3.63,0,.48,0,.78.26.79.64,0,.4-.3.65-.81.66-.6,0-1.21,0-1.81,0h0Z" class="cls-1"></path>
  <path d="M19.54,34.5c-.59,0-1.18,0-1.77,0-.51,0-.82-.51-.82-1.3,0-.79.31-1.28.82-1.29,1.19,0,2.39-.01,3.58,0,.48,0,.79.5.8,1.25.01.79-.3,1.32-.8,1.33-.6.01-1.21,0-1.81,0h0Z" class="cls-1"></path>
  <path d="M29.7,41.31V7.18c0-.18-.02-.37.01-.55.09-.45.38-.71.86-.73.46-.02.86.29.92.73.03.2.01.4.01.61v34.07c2.85.76,3.89,3.06,3.6,5.01-.33,2.22-2.24,3.79-4.53,3.78-2.24,0-4.15-1.6-4.47-3.78-.29-1.95.73-4.23,3.6-5.01h0ZM27.88,45.66c-.02,1.42,1.2,2.64,2.68,2.67,1.44.04,2.73-1.17,2.76-2.6.03-1.44-1.22-2.69-2.71-2.7-1.47,0-2.71,1.19-2.73,2.62h0Z" class="cls-1"></path>
</svg>